<svg xmlns="http://www.w3.org/2000/svg" viewBox="0 0 800 1000" role="img" aria-label="Market ve toptan ticaret — teknik çizim, geçici görsel">
  <rect width="800" height="1000" fill="#d8d4cb"/>
  <g stroke="#12120f" stroke-opacity=".10" stroke-width="1">
    <path d="M0 60h800M0 120h800M0 180h800M0 240h800M0 300h800M0 360h800M0 420h800M0 480h800M0 540h800M0 600h800M0 660h800M0 720h800M0 780h800M0 840h800M0 900h800M0 960h800"/>
    <path d="M60 0v1000M180 0v1000M300 0v1000M420 0v1000M540 0v1000M660 0v1000M780 0v1000"/>
  </g>

  <!-- shelving elevation -->
  <g stroke="#12120f" stroke-opacity=".55" stroke-width="1.5" fill="none">
    <path d="M90 880h620"/>
    <path d="M90 700h620M90 520h620M90 340h620M90 190h620"/>
    <path d="M90 190v690M710 190v690M400 190v690"/>
  </g>

  <!-- crates -->
  <g fill="#2e6244" fill-opacity=".22" stroke="#2e6244" stroke-opacity=".55" stroke-width="1.2">
    <rect x="112" y="232" width="76" height="108"/>
    <rect x="200" y="256" width="58" height="84"/>
    <rect x="272" y="220" width="88" height="120"/>
    <rect x="424" y="248" width="70" height="92"/>
    <rect x="508" y="226" width="94" height="114"/>
    <rect x="614" y="262" width="76" height="78"/>

    <rect x="112" y="418" width="90" height="102"/>
    <rect x="216" y="440" width="64" height="80"/>
    <rect x="292" y="404" width="82" height="116"/>
    <rect x="424" y="430" width="98" height="90"/>
    <rect x="536" y="412" width="72" height="108"/>
    <rect x="622" y="452" width="68" height="68"/>

    <rect x="112" y="602" width="70" height="98"/>
    <rect x="196" y="584" width="96" height="116"/>
    <rect x="306" y="620" width="68" height="80"/>
    <rect x="424" y="596" width="80" height="104"/>
    <rect x="518" y="628" width="86" height="72"/>
    <rect x="618" y="600" width="72" height="100"/>

    <rect x="112" y="784" width="88" height="96"/>
    <rect x="214" y="806" width="66" height="74"/>
    <rect x="294" y="772" width="80" height="108"/>
    <rect x="424" y="794" width="94" height="86"/>
    <rect x="532" y="776" width="70" height="104"/>
    <rect x="616" y="812" width="74" height="68"/>
  </g>

  <!-- dimension marks -->
  <g stroke="#12120f" stroke-opacity=".35" stroke-width="1">
    <path d="M90 130h620"/>
    <path d="M90 122v16M710 122v16M400 122v16"/>
  </g>
  <g fill="#12120f" fill-opacity=".45" font-family="Georgia, serif" font-size="17" letter-spacing="1">
    <text x="90" y="108">TOPTAN</text>
    <text x="410" y="108">PERAKENDE</text>
    <text x="90" y="932">DEPO — STOK — SEVKİYAT</text>
  </g>
</svg>
